<svg xmlns="http://www.w3.org/2000/svg" width="1150" height="889" viewBox="0 0 1150 889">
<rect width="1150" height="889" fill="#fff"/>
<defs><style>
.t{font:14px Arial,sans-serif;fill:#222}.s{font:12px Arial,sans-serif;fill:#333}.as{font:bold 22px Arial,sans-serif;fill:#f36f21}.n{fill:#f7f7f7;stroke:#555;stroke-width:2}.r{fill:#eaf3ff;stroke:#3677b8;stroke-width:2}.sw{fill:#e8f7e8;stroke:#45a049;stroke-width:2}.pc{fill:#eef4f8;stroke:#777;stroke-width:1.5}.ln{stroke:#1683d8;stroke-width:2;fill:none}.ip{font:11px Arial,sans-serif;fill:#f05b23}
</style></defs>
<text x="230" y="48" class="as">AS:3000</text><text x="800" y="48" class="as">AS:4000</text><text x="238" y="530" class="as">AS:1000</text><text x="900" y="535" class="as">AS:2000</text><text x="235" y="755" class="as">AS:100</text><text x="830" y="760" class="as">AS:200</text>

<!-- ISP clouds -->
<g class="n"><ellipse cx="365" cy="60" rx="45" ry="20"/><text x="345" y="65" class="t">ISP1</text></g>
<g class="n"><ellipse cx="775" cy="60" rx="45" ry="20"/><text x="755" y="65" class="t">ISP2</text></g>
<g class="n"><ellipse cx="570" cy="67" rx="38" ry="17"/><text x="553" y="72" class="s">Net</text></g>
<path class="ln" d="M410 60H730"/><text x="533" y="38" class="ip">30.10.20.0/30</text>
<path class="ln" d="M400 55L725 55"/>

<!-- AS1000 -->
<g class="r"><circle cx="290" cy="205" r="25"/><text x="252" y="250" class="t">R5-IGR1</text></g>
<g class="r"><circle cx="450" cy="205" r="25"/><text x="412" y="250" class="t">R6-IGR2</text></g>
<path class="ln" d="M365 78L305 180"/><path class="ln" d="M365 78L435 180"/><path class="ln" d="M775 78L315 180"/><path class="ln" d="M775 78L435 180"/>
<path class="ln" d="M315 205H425"/><text x="350" y="194" class="ip">10.5.6.0/30</text>
<text x="240" y="165" class="ip">10.5.10.0/30</text><text x="438" y="165" class="ip">10.6.10.0/30</text>

<g class="r"><circle cx="290" cy="340" r="25"/><text x="265" y="385" class="t">R3-P1</text></g>
<g class="r"><circle cx="450" cy="340" r="25"/><text x="425" y="385" class="t">R4-P2</text></g>
<path class="ln" d="M290 230V315"/><path class="ln" d="M450 230V315"/><path class="ln" d="M315 340H425"/><text x="350" y="330" class="ip">10.3.4.0/30</text>
<g class="r"><circle cx="370" cy="455" r="25"/><text x="345" y="500" class="t">R1-PE1</text></g>
<path class="ln" d="M290 365L350 435"/><path class="ln" d="M450 365L390 435"/><text x="270" y="420" class="ip">10.1.3.0/30</text><text x="405" y="420" class="ip">10.1.4.0/30</text>

<!-- HQ -->
<g class="r"><circle cx="370" cy="590" r="25"/><text x="350" y="635" class="t">HQ</text></g>
<path class="ln" d="M370 480V565"/><text x="275" y="530" class="ip">10.10.30.0/30</text>
<g class="sw"><rect x="340" y="670" width="60" height="35" rx="6"/><text x="353" y="693" class="t">L3-SW</text></g>
<path class="ln" d="M370 615V670"/><text x="275" y="655" class="ip">10.10.10.0/30</text>
<g class="sw"><rect x="190" y="735" width="60" height="35" rx="6"/><text x="203" y="758" class="t">L2-SW</text></g>
<path class="ln" d="M340 690L250 750"/><g class="pc"><rect x="90" y="820" width="60" height="32" rx="5"/><text x="103" y="841" class="s">PC3</text></g>
<g class="pc"><rect x="230" y="820" width="60" height="32" rx="5"/><text x="243" y="841" class="s">PC4</text></g>
<g class="pc"><rect x="470" y="735" width="60" height="32" rx="5"/><text x="483" y="756" class="s">PC2</text></g>
<g class="pc"><rect x="470" y="820" width="60" height="32" rx="5"/><text x="483" y="841" class="s">PC1</text></g>
<path class="ln" d="M220 770L120 820M230 770L260 820M400 690L500 735M500 767V820"/>
<text x="78" y="808" class="ip">Vlan10 .2</text><text x="220" y="808" class="ip">Vlan20 .2</text><text x="470" y="805" class="ip">Vlan10 .3</text><text x="470" y="805" class="ip">Vlan30 .2</text>
<text x="65" y="690" class="ip">Vlan10: 192.168.10.0/29</text><text x="65" y="708" class="ip">Vlan20: 192.168.20.0/29</text><text x="65" y="726" class="ip">Vlan30: 192.168.30.0/29</text>

<!-- AS2000 -->
<g class="n"><circle cx="725" cy="205" r="24"/><text x="695" y="248" class="t">R4-IGR1-A</text></g>
<g class="n"><circle cx="850" cy="205" r="24"/><text x="820" y="248" class="t">R5-IGR2-A</text></g>
<path class="ln" d="M775 80L745 180"/><path class="ln" d="M775 80L830 180"/>
<path class="ln" d="M745 205H825"/><text x="750" y="193" class="ip">20.4.5.0/30</text>
<g class="n"><circle cx="725" cy="300" r="24"/><text x="695" y="343" class="t">R2-P1-A</text></g>
<g class="n"><circle cx="850" cy="300" r="24"/><text x="820" y="343" class="t">R3-P2-A</text></g>
<path class="ln" d="M725 230V275M850 230V275M749 300H826"/><text x="760" y="289" class="ip">20.2.3.0/30</text>
<g class="n"><circle cx="790" cy="400" r="24"/><text x="758" y="443" class="t">R1-PE1-A</text></g>
<path class="ln" d="M725 325L775 380M850 325L810 380"/><text x="675" y="365" class="ip">20.1.2.0/30</text><text x="830" y="365" class="ip">20.1.3.0/30</text>
<g class="r"><circle cx="790" cy="485" r="25"/><text x="765" y="530" class="t">Branch</text></g><path class="ln" d="M790 425V460"/><text x="690" y="455" class="ip">10.10.40.0/30</text>

<!-- Branch -->
<g class="sw"><rect x="700" y="575" width="80" height="40" rx="6"/><text x="708" y="600" class="s">L3-SW-Branch1</text></g>
<g class="sw"><rect x="830" y="575" width="80" height="40" rx="6"/><text x="838" y="600" class="s">L3-SW-Branch2</text></g>
<path class="ln" d="M770 485L740 575M810 485L870 575"/><text x="675" y="555" class="ip">10.10.20.0/30</text><text x="840" y="555" class="ip">10.10.20.4/30</text>
<path class="ln" d="M780 595H830"/>
<g class="sw"><rect x="700" y="675" width="80" height="40" rx="6"/><text x="708" y="700" class="s">L2-SW-Branch1</text></g>
<g class="sw"><rect x="830" y="675" width="80" height="40" rx="6"/><text x="838" y="700" class="s">L2-SW-Branch2</text></g>
<path class="ln" d="M720 615L740 675M760 615L850 675M850 615L760 675M890 615L870 675"/>
<g class="pc"><rect x="620" y="805" width="70" height="32" rx="5"/><text x="632" y="826" class="s">Branch-PC1</text></g>
<g class="pc"><rect x="735" y="805" width="70" height="32" rx="5"/><text x="747" y="826" class="s">Branch-PC2</text></g>
<g class="pc"><rect x="850" y="805" width="70" height="32" rx="5"/><text x="862" y="826" class="s">Branch-PC3</text></g>
<g class="pc"><rect x="965" y="805" width="70" height="32" rx="5"/><text x="977" y="826" class="s">Branch-PC4</text></g>
<path class="ln" d="M720 715L655 805M760 715L770 805M850 715L885 805M890 715L1000 805"/>
<text x="600" y="760" class="ip">Vlan50: 192.168.50.0/29</text><text x="600" y="778" class="ip">Vlan60: 192.168.60.0/29</text>
</svg>